# xmcd
#
# Track frame offsets: 
#        150
#        54340
#        91770
#        136285
#        173202
#
# Disc length: 3068 seconds
#
# Revision: 1
# Processed by: cddbd v1.5.2PL0 Copyright (c) Steve Scherf et al.
# Submitted via: ExactAudioCopy v0.95b3
#
DISCID=360bfa05
DTITLE=The Great Jazz Trio - At The Village Vanguard Again
DYEAR=1977
DGENRE=Jazz
TTITLE0=Hi-Fly
TTITLE1=Sophisticated Lady
TTITLE2=Softly As In A Morning Sunrise
TTITLE3=Wave
TTITLE4=My Funny Valentine
EXTD=YEAR: 1977
EXTT0=
EXTT1=
EXTT2=
EXTT3=
EXTT4=
PLAYORDER=
